<mxfile host="drawio-plugin" modified="2022-06-15T22:31:04.823Z" agent="5.0 (X11; Linux x86_64) AppleWebKit/537.36 (KHTML, like Gecko) Chrome/84.0.4147.105 Safari/537.36" etag="pyT8Yukb3bO8MK2naxbb" version="14.7.4" type="embed"><diagram id="HTi6n_IrbVASbgM0Ylc4" name="Page-1"><mxGraphModel dx="1112" dy="725" grid="1" gridSize="10" guides="1" tooltips="1" connect="1" arrows="1" fold="1" page="1" pageScale="1" pageWidth="850" pageHeight="1100" math="0" shadow="0"><root><mxCell id="0"/><mxCell id="1" parent="0"/><mxCell id="En1ZoJ7ufk9oOZKxTBAK-1" value="&lt;div style=&quot;line-height: 210% ; font-size: 21px&quot; align=&quot;center&quot;&gt;&lt;br&gt;&lt;/div&gt;" style="ellipse;shape=cloud;whiteSpace=wrap;html=1;align=center;" parent="1" vertex="1"><mxGeometry x="250" width="310" height="170" as="geometry"/></mxCell><mxCell id="QVCYTxlY-2K3jcF5bHon-65" value="&lt;font style=&quot;font-size: 25px&quot;&gt;TD: Topology Director&lt;/font&gt;" style="text;html=1;strokeColor=none;fillColor=none;align=center;verticalAlign=middle;whiteSpace=wrap;rounded=0;" parent="1" vertex="1"><mxGeometry x="272.41" y="50" width="270" height="30" as="geometry"/></mxCell><mxCell id="QVCYTxlY-2K3jcF5bHon-66" value="" style="group;aspect=fixed;" parent="1" vertex="1" connectable="0"><mxGeometry x="340" y="80.00000000000003" width="134.83" height="56.52" as="geometry"/></mxCell><mxCell id="QVCYTxlY-2K3jcF5bHon-67" value="&lt;font style=&quot;font-size: 22px&quot; color=&quot;#FF0000&quot;&gt;Raft&lt;/font&gt;" style="text;html=1;strokeColor=none;fillColor=none;align=center;verticalAlign=middle;whiteSpace=wrap;rounded=0;aspect=fixed;" parent="QVCYTxlY-2K3jcF5bHon-66" vertex="1"><mxGeometry x="14.113890924316964" y="25.40560549973559" width="107.25975501278079" height="22.581001055322275" as="geometry"/></mxCell><mxCell id="QVCYTxlY-2K3jcF5bHon-68" value="" style="endArrow=none;html=1;entryX=0;entryY=0.736;entryDx=0;entryDy=0;entryPerimeter=0;exitX=1;exitY=0.5;exitDx=0;exitDy=0;exitPerimeter=0;" parent="QVCYTxlY-2K3jcF5bHon-66" source="QVCYTxlY-2K3jcF5bHon-73" target="QVCYTxlY-2K3jcF5bHon-72" edge="1"><mxGeometry x="25.405003663770536" y="14.114225277630881" width="54.79510594146587" height="71.41125884515624" as="geometry"><mxPoint x="80.2001096052364" y="309.4711918611971" as="sourcePoint"/><mxPoint x="134.99521554670224" y="238.05993301604087" as="targetPoint"/></mxGeometry></mxCell><mxCell id="QVCYTxlY-2K3jcF5bHon-69" value="" style="endArrow=none;html=1;" parent="QVCYTxlY-2K3jcF5bHon-66" source="QVCYTxlY-2K3jcF5bHon-73" target="QVCYTxlY-2K3jcF5bHon-71" edge="1"><mxGeometry x="25.405003663770536" y="14.114225277630881" width="54.79510594146587" height="71.41125884515624" as="geometry"><mxPoint x="25.405003663770536" y="59.10903125078687" as="sourcePoint"/><mxPoint x="86.77552231821231" y="29.5481978293168" as="targetPoint"/></mxGeometry></mxCell><mxCell id="QVCYTxlY-2K3jcF5bHon-70" value="" style="endArrow=none;html=1;" parent="QVCYTxlY-2K3jcF5bHon-66" edge="1"><mxGeometry x="36.36402485206372" y="28.396477046662124" width="54.79510594146587" height="71.41125884515624" as="geometry"><mxPoint x="115.73390557939912" y="47.988365943945" as="sourcePoint"/><mxPoint x="76.21501099131163" y="12.702802749867795" as="targetPoint"/></mxGeometry></mxCell><mxCell id="QVCYTxlY-2K3jcF5bHon-71" value="" style="sketch=0;aspect=fixed;html=1;points=[];align=center;image;fontSize=12;image=img/lib/mscae/Cache_Redis_Product.svg;" parent="QVCYTxlY-2K3jcF5bHon-66" vertex="1"><mxGeometry x="112.91195762341363" y="38.10840824960341" width="21.91685396545985" height="18.410157330986273" as="geometry"/></mxCell><mxCell id="QVCYTxlY-2K3jcF5bHon-72" value="" style="sketch=0;aspect=fixed;html=1;points=[];align=center;image;fontSize=12;image=img/lib/mscae/Cache_Redis_Product.svg;" parent="QVCYTxlY-2K3jcF5bHon-66" vertex="1"><mxGeometry x="56.456227880370186" width="21.91685396545985" height="18.410157330986273" as="geometry"/></mxCell><mxCell id="QVCYTxlY-2K3jcF5bHon-73" value="" style="sketch=0;aspect=fixed;html=1;points=[];align=center;image;fontSize=12;image=img/lib/mscae/Cache_Redis_Product.svg;" parent="QVCYTxlY-2K3jcF5bHon-66" vertex="1"><mxGeometry y="38.10840824960341" width="21.91685396545985" height="18.410157330986273" as="geometry"/></mxCell><mxCell id="QVCYTxlY-2K3jcF5bHon-125" value="" style="group" parent="1" vertex="1" connectable="0"><mxGeometry y="390" width="300" height="120" as="geometry"/></mxCell><mxCell id="QVCYTxlY-2K3jcF5bHon-1" value="&lt;div style=&quot;line-height: 210% ; font-size: 21px&quot; align=&quot;center&quot;&gt;&lt;br&gt;&lt;/div&gt;" style="ellipse;shape=cloud;whiteSpace=wrap;html=1;align=center;" parent="QVCYTxlY-2K3jcF5bHon-125" vertex="1"><mxGeometry width="300.00000000000006" height="120" as="geometry"/></mxCell><mxCell id="QVCYTxlY-2K3jcF5bHon-74" value="&lt;font style=&quot;font-size: 20px&quot;&gt;FC: Failover Coordinator A&lt;/font&gt;" style="text;html=1;strokeColor=none;fillColor=none;align=center;verticalAlign=middle;whiteSpace=wrap;rounded=0;" parent="QVCYTxlY-2K3jcF5bHon-125" vertex="1"><mxGeometry x="30" y="32.86" width="240" height="17.14" as="geometry"/></mxCell><mxCell id="QVCYTxlY-2K3jcF5bHon-75" value="" style="group;aspect=fixed;" parent="QVCYTxlY-2K3jcF5bHon-125" vertex="1" connectable="0"><mxGeometry x="89.99935483870969" y="49.99714285714288" width="115.56857142857143" height="48.44571428571429" as="geometry"/></mxCell><mxCell id="QVCYTxlY-2K3jcF5bHon-76" value="&lt;font style=&quot;font-size: 22px&quot; color=&quot;#FF0000&quot;&gt;Raft&lt;/font&gt;" style="text;html=1;strokeColor=none;fillColor=none;align=center;verticalAlign=middle;whiteSpace=wrap;rounded=0;aspect=fixed;" parent="QVCYTxlY-2K3jcF5bHon-75" vertex="1"><mxGeometry x="12.097620792271682" y="21.776233285487645" width="91.93693286809781" height="19.355143761704806" as="geometry"/></mxCell><mxCell id="QVCYTxlY-2K3jcF5bHon-77" value="" style="endArrow=none;html=1;entryX=0;entryY=0.736;entryDx=0;entryDy=0;entryPerimeter=0;exitX=1;exitY=0.5;exitDx=0;exitDy=0;exitPerimeter=0;" parent="QVCYTxlY-2K3jcF5bHon-75" source="QVCYTxlY-2K3jcF5bHon-82" target="QVCYTxlY-2K3jcF5bHon-81" edge="1"><mxGeometry x="21.77571742608903" y="12.097907380826468" width="46.9672336641136" height="61.209650438705346" as="geometry"><mxPoint x="68.74295109020262" y="265.2610215953118" as="sourcePoint"/><mxPoint x="115.7101847543162" y="204.05137115660645" as="targetPoint"/></mxGeometry></mxCell><mxCell id="QVCYTxlY-2K3jcF5bHon-78" value="" style="endArrow=none;html=1;" parent="QVCYTxlY-2K3jcF5bHon-75" source="QVCYTxlY-2K3jcF5bHon-82" target="QVCYTxlY-2K3jcF5bHon-80" edge="1"><mxGeometry x="21.77571742608903" y="12.097907380826468" width="46.9672336641136" height="61.209650438705346" as="geometry"><mxPoint x="21.77571742608903" y="50.66488392924589" as="sourcePoint"/><mxPoint x="74.37901912989626" y="25.32702671084297" as="targetPoint"/></mxGeometry></mxCell><mxCell id="QVCYTxlY-2K3jcF5bHon-79" value="" style="endArrow=none;html=1;" parent="QVCYTxlY-2K3jcF5bHon-75" edge="1"><mxGeometry x="31.16916415891176" y="24.339837468567534" width="46.9672336641136" height="61.209650438705346" as="geometry"><mxPoint x="99.20049049662781" y="41.13288509481" as="sourcePoint"/><mxPoint x="65.3271522782671" y="10.888116642743823" as="targetPoint"/></mxGeometry></mxCell><mxCell id="QVCYTxlY-2K3jcF5bHon-80" value="" style="sketch=0;aspect=fixed;html=1;points=[];align=center;image;fontSize=12;image=img/lib/mscae/Cache_Redis_Product.svg;" parent="QVCYTxlY-2K3jcF5bHon-75" vertex="1"><mxGeometry x="96.78167796292595" y="32.66434992823149" width="18.785874827537015" height="15.78013485513109" as="geometry"/></mxCell><mxCell id="QVCYTxlY-2K3jcF5bHon-81" value="" style="sketch=0;aspect=fixed;html=1;points=[];align=center;image;fontSize=12;image=img/lib/mscae/Cache_Redis_Product.svg;" parent="QVCYTxlY-2K3jcF5bHon-75" vertex="1"><mxGeometry x="48.39105246888873" width="18.785874827537015" height="15.78013485513109" as="geometry"/></mxCell><mxCell id="QVCYTxlY-2K3jcF5bHon-82" value="" style="sketch=0;aspect=fixed;html=1;points=[];align=center;image;fontSize=12;image=img/lib/mscae/Cache_Redis_Product.svg;" parent="QVCYTxlY-2K3jcF5bHon-75" vertex="1"><mxGeometry y="32.66434992823149" width="18.785874827537015" height="15.78013485513109" as="geometry"/></mxCell><mxCell id="QVCYTxlY-2K3jcF5bHon-137" value="" style="group" parent="1" vertex="1" connectable="0"><mxGeometry x="550" y="390" width="300" height="120" as="geometry"/></mxCell><mxCell id="QVCYTxlY-2K3jcF5bHon-138" value="&lt;div style=&quot;line-height: 210% ; font-size: 21px&quot; align=&quot;center&quot;&gt;&lt;br&gt;&lt;/div&gt;" style="ellipse;shape=cloud;whiteSpace=wrap;html=1;align=center;" parent="QVCYTxlY-2K3jcF5bHon-137" vertex="1"><mxGeometry width="300.00000000000006" height="120" as="geometry"/></mxCell><mxCell id="QVCYTxlY-2K3jcF5bHon-140" value="" style="group;aspect=fixed;" parent="QVCYTxlY-2K3jcF5bHon-137" vertex="1" connectable="0"><mxGeometry x="92.21935483870969" y="49.99714285714288" width="115.56857142857143" height="48.44571428571429" as="geometry"/></mxCell><mxCell id="QVCYTxlY-2K3jcF5bHon-141" value="&lt;font style=&quot;font-size: 22px&quot; color=&quot;#FF0000&quot;&gt;Raft&lt;/font&gt;" style="text;html=1;strokeColor=none;fillColor=none;align=center;verticalAlign=middle;whiteSpace=wrap;rounded=0;aspect=fixed;" parent="QVCYTxlY-2K3jcF5bHon-140" vertex="1"><mxGeometry x="12.097620792271682" y="21.776233285487645" width="91.93693286809781" height="19.355143761704806" as="geometry"/></mxCell><mxCell id="QVCYTxlY-2K3jcF5bHon-142" value="" style="endArrow=none;html=1;entryX=0;entryY=0.736;entryDx=0;entryDy=0;entryPerimeter=0;exitX=1;exitY=0.5;exitDx=0;exitDy=0;exitPerimeter=0;" parent="QVCYTxlY-2K3jcF5bHon-140" source="QVCYTxlY-2K3jcF5bHon-147" target="QVCYTxlY-2K3jcF5bHon-146" edge="1"><mxGeometry x="21.77571742608903" y="12.097907380826468" width="46.9672336641136" height="61.209650438705346" as="geometry"><mxPoint x="68.74295109020262" y="265.2610215953118" as="sourcePoint"/><mxPoint x="115.7101847543162" y="204.05137115660645" as="targetPoint"/></mxGeometry></mxCell><mxCell id="QVCYTxlY-2K3jcF5bHon-143" value="" style="endArrow=none;html=1;" parent="QVCYTxlY-2K3jcF5bHon-140" source="QVCYTxlY-2K3jcF5bHon-147" target="QVCYTxlY-2K3jcF5bHon-145" edge="1"><mxGeometry x="21.77571742608903" y="12.097907380826468" width="46.9672336641136" height="61.209650438705346" as="geometry"><mxPoint x="21.77571742608903" y="50.66488392924589" as="sourcePoint"/><mxPoint x="74.37901912989626" y="25.32702671084297" as="targetPoint"/></mxGeometry></mxCell><mxCell id="QVCYTxlY-2K3jcF5bHon-144" value="" style="endArrow=none;html=1;" parent="QVCYTxlY-2K3jcF5bHon-140" edge="1"><mxGeometry x="31.16916415891176" y="24.339837468567534" width="46.9672336641136" height="61.209650438705346" as="geometry"><mxPoint x="99.20049049662781" y="41.13288509481" as="sourcePoint"/><mxPoint x="65.3271522782671" y="10.888116642743823" as="targetPoint"/></mxGeometry></mxCell><mxCell id="QVCYTxlY-2K3jcF5bHon-145" value="" style="sketch=0;aspect=fixed;html=1;points=[];align=center;image;fontSize=12;image=img/lib/mscae/Cache_Redis_Product.svg;" parent="QVCYTxlY-2K3jcF5bHon-140" vertex="1"><mxGeometry x="96.78167796292595" y="32.66434992823149" width="18.785874827537015" height="15.78013485513109" as="geometry"/></mxCell><mxCell id="QVCYTxlY-2K3jcF5bHon-146" value="" style="sketch=0;aspect=fixed;html=1;points=[];align=center;image;fontSize=12;image=img/lib/mscae/Cache_Redis_Product.svg;" parent="QVCYTxlY-2K3jcF5bHon-140" vertex="1"><mxGeometry x="48.39105246888873" width="18.785874827537015" height="15.78013485513109" as="geometry"/></mxCell><mxCell id="QVCYTxlY-2K3jcF5bHon-147" value="" style="sketch=0;aspect=fixed;html=1;points=[];align=center;image;fontSize=12;image=img/lib/mscae/Cache_Redis_Product.svg;" parent="QVCYTxlY-2K3jcF5bHon-140" vertex="1"><mxGeometry y="32.66434992823149" width="18.785874827537015" height="15.78013485513109" as="geometry"/></mxCell><mxCell id="2" value="&lt;font style=&quot;font-size: 20px&quot;&gt;FC: Failover Coordinator X&lt;/font&gt;" style="text;html=1;strokeColor=none;fillColor=none;align=center;verticalAlign=middle;whiteSpace=wrap;rounded=0;" parent="QVCYTxlY-2K3jcF5bHon-137" vertex="1"><mxGeometry x="30" y="32.86" width="250" height="17.14" as="geometry"/></mxCell><mxCell id="QVCYTxlY-2K3jcF5bHon-148" value="" style="endArrow=none;dashed=1;html=1;dashPattern=1 3;strokeWidth=8;curved=1;" parent="1" edge="1"><mxGeometry width="50" height="50" relative="1" as="geometry"><mxPoint x="280" y="500" as="sourcePoint"/><mxPoint x="580" y="500" as="targetPoint"/></mxGeometry></mxCell><mxCell id="QVCYTxlY-2K3jcF5bHon-157" value="" style="group" parent="1" vertex="1" connectable="0"><mxGeometry x="760" y="690" width="70" height="150" as="geometry"/></mxCell><mxCell id="QVCYTxlY-2K3jcF5bHon-149" value="" style="shape=cylinder3;whiteSpace=wrap;html=1;boundedLbl=1;backgroundOutline=1;size=15;gradientColor=#FF3333;shadow=0;sketch=0;" parent="QVCYTxlY-2K3jcF5bHon-157" vertex="1"><mxGeometry width="65" height="150" as="geometry"/></mxCell><mxCell id="QVCYTxlY-2K3jcF5bHon-152" value="" style="sketch=0;aspect=fixed;html=1;points=[];align=center;image;fontSize=12;image=img/lib/mscae/Cache_Redis_Product.svg;" parent="QVCYTxlY-2K3jcF5bHon-157" vertex="1"><mxGeometry x="21.661428571428598" y="60.00384615384615" width="21.67600941638886" height="18.20784790976664" as="geometry"/></mxCell><mxCell id="QVCYTxlY-2K3jcF5bHon-153" value="" style="sketch=0;aspect=fixed;html=1;points=[];align=center;image;fontSize=12;image=img/lib/mscae/Cache_Redis_Product.svg;" parent="QVCYTxlY-2K3jcF5bHon-157" vertex="1"><mxGeometry x="21.661428571428598" y="103.84615384615384" width="21.67600941638886" height="18.20784790976664" as="geometry"/></mxCell><mxCell id="QVCYTxlY-2K3jcF5bHon-154" value="" style="sketch=0;aspect=fixed;html=1;points=[];align=center;image;fontSize=12;image=img/lib/mscae/Cache_Redis_Product.svg;" parent="QVCYTxlY-2K3jcF5bHon-157" vertex="1"><mxGeometry x="21.661428571428598" y="122.05384615384611" width="21.67600941638886" height="18.20784790976664" as="geometry"/></mxCell><mxCell id="QVCYTxlY-2K3jcF5bHon-156" value="" style="endArrow=none;dashed=1;html=1;strokeWidth=2;rounded=0;" parent="QVCYTxlY-2K3jcF5bHon-157" edge="1"><mxGeometry width="50" height="50" relative="1" as="geometry"><mxPoint y="80" as="sourcePoint"/><mxPoint x="67" y="80" as="targetPoint"/><Array as="points"><mxPoint x="33" y="80"/></Array></mxGeometry></mxCell><mxCell id="QVCYTxlY-2K3jcF5bHon-159" value="" style="sketch=0;aspect=fixed;html=1;points=[];align=center;image;fontSize=12;image=img/lib/mscae/Cache_Redis_Product.svg;" parent="QVCYTxlY-2K3jcF5bHon-157" vertex="1"><mxGeometry x="21.659999999999968" y="85.64" width="21.67600941638886" height="18.20784790976664" as="geometry"/></mxCell><mxCell id="QVCYTxlY-2K3jcF5bHon-160" value="&lt;div style=&quot;font-size: 15px&quot;&gt;Slots v-w&lt;/div&gt;" style="text;html=1;strokeColor=none;fillColor=none;align=center;verticalAlign=middle;whiteSpace=wrap;rounded=0;shadow=0;sketch=0;" parent="QVCYTxlY-2K3jcF5bHon-157" vertex="1"><mxGeometry x="-2" y="26.15" width="70" height="33.85" as="geometry"/></mxCell><mxCell id="QVCYTxlY-2K3jcF5bHon-161" value="" style="group" parent="1" vertex="1" connectable="0"><mxGeometry x="672" y="690" width="70" height="150" as="geometry"/></mxCell><mxCell id="QVCYTxlY-2K3jcF5bHon-162" value="" style="shape=cylinder3;whiteSpace=wrap;html=1;boundedLbl=1;backgroundOutline=1;size=15;gradientColor=#FF3333;shadow=0;sketch=0;" parent="QVCYTxlY-2K3jcF5bHon-161" vertex="1"><mxGeometry width="65" height="150" as="geometry"/></mxCell><mxCell id="QVCYTxlY-2K3jcF5bHon-163" value="" style="sketch=0;aspect=fixed;html=1;points=[];align=center;image;fontSize=12;image=img/lib/mscae/Cache_Redis_Product.svg;" parent="QVCYTxlY-2K3jcF5bHon-161" vertex="1"><mxGeometry x="21.661428571428598" y="60.00384615384615" width="21.67600941638886" height="18.20784790976664" as="geometry"/></mxCell><mxCell id="QVCYTxlY-2K3jcF5bHon-164" value="" style="sketch=0;aspect=fixed;html=1;points=[];align=center;image;fontSize=12;image=img/lib/mscae/Cache_Redis_Product.svg;" parent="QVCYTxlY-2K3jcF5bHon-161" vertex="1"><mxGeometry x="21.661428571428598" y="103.84615384615384" width="21.67600941638886" height="18.20784790976664" as="geometry"/></mxCell><mxCell id="QVCYTxlY-2K3jcF5bHon-165" value="" style="sketch=0;aspect=fixed;html=1;points=[];align=center;image;fontSize=12;image=img/lib/mscae/Cache_Redis_Product.svg;" parent="QVCYTxlY-2K3jcF5bHon-161" vertex="1"><mxGeometry x="21.661428571428598" y="122.05384615384611" width="21.67600941638886" height="18.20784790976664" as="geometry"/></mxCell><mxCell id="QVCYTxlY-2K3jcF5bHon-166" value="" style="endArrow=none;dashed=1;html=1;strokeWidth=2;rounded=0;" parent="QVCYTxlY-2K3jcF5bHon-161" edge="1"><mxGeometry width="50" height="50" relative="1" as="geometry"><mxPoint y="80" as="sourcePoint"/><mxPoint x="67" y="80" as="targetPoint"/><Array as="points"><mxPoint x="33" y="80"/></Array></mxGeometry></mxCell><mxCell id="QVCYTxlY-2K3jcF5bHon-167" value="" style="sketch=0;aspect=fixed;html=1;points=[];align=center;image;fontSize=12;image=img/lib/mscae/Cache_Redis_Product.svg;" parent="QVCYTxlY-2K3jcF5bHon-161" vertex="1"><mxGeometry x="21.659999999999968" y="85.64" width="21.67600941638886" height="18.20784790976664" as="geometry"/></mxCell><mxCell id="QVCYTxlY-2K3jcF5bHon-168" value="&lt;div style=&quot;font-size: 15px&quot;&gt;Slots c-d&lt;/div&gt;" style="text;html=1;strokeColor=none;fillColor=none;align=center;verticalAlign=middle;whiteSpace=wrap;rounded=0;shadow=0;sketch=0;" parent="QVCYTxlY-2K3jcF5bHon-161" vertex="1"><mxGeometry x="-2" y="26.15" width="70" height="33.85" as="geometry"/></mxCell><mxCell id="QVCYTxlY-2K3jcF5bHon-169" value="" style="group" parent="1" vertex="1" connectable="0"><mxGeometry x="120" y="690" width="70" height="150" as="geometry"/></mxCell><mxCell id="QVCYTxlY-2K3jcF5bHon-170" value="" style="shape=cylinder3;whiteSpace=wrap;html=1;boundedLbl=1;backgroundOutline=1;size=15;gradientColor=#FF3333;shadow=0;sketch=0;" parent="QVCYTxlY-2K3jcF5bHon-169" vertex="1"><mxGeometry width="65" height="150" as="geometry"/></mxCell><mxCell id="QVCYTxlY-2K3jcF5bHon-171" value="" style="sketch=0;aspect=fixed;html=1;points=[];align=center;image;fontSize=12;image=img/lib/mscae/Cache_Redis_Product.svg;" parent="QVCYTxlY-2K3jcF5bHon-169" vertex="1"><mxGeometry x="21.661428571428598" y="60.00384615384615" width="21.67600941638886" height="18.20784790976664" as="geometry"/></mxCell><mxCell id="QVCYTxlY-2K3jcF5bHon-172" value="" style="sketch=0;aspect=fixed;html=1;points=[];align=center;image;fontSize=12;image=img/lib/mscae/Cache_Redis_Product.svg;" parent="QVCYTxlY-2K3jcF5bHon-169" vertex="1"><mxGeometry x="21.661428571428598" y="103.84615384615384" width="21.67600941638886" height="18.20784790976664" as="geometry"/></mxCell><mxCell id="QVCYTxlY-2K3jcF5bHon-173" value="" style="sketch=0;aspect=fixed;html=1;points=[];align=center;image;fontSize=12;image=img/lib/mscae/Cache_Redis_Product.svg;" parent="QVCYTxlY-2K3jcF5bHon-169" vertex="1"><mxGeometry x="21.661428571428598" y="122.05384615384611" width="21.67600941638886" height="18.20784790976664" as="geometry"/></mxCell><mxCell id="QVCYTxlY-2K3jcF5bHon-174" value="" style="endArrow=none;dashed=1;html=1;strokeWidth=2;rounded=0;" parent="QVCYTxlY-2K3jcF5bHon-169" edge="1"><mxGeometry width="50" height="50" relative="1" as="geometry"><mxPoint y="80" as="sourcePoint"/><mxPoint x="67" y="80" as="targetPoint"/><Array as="points"><mxPoint x="33" y="80"/></Array></mxGeometry></mxCell><mxCell id="QVCYTxlY-2K3jcF5bHon-175" value="" style="sketch=0;aspect=fixed;html=1;points=[];align=center;image;fontSize=12;image=img/lib/mscae/Cache_Redis_Product.svg;" parent="QVCYTxlY-2K3jcF5bHon-169" vertex="1"><mxGeometry x="21.659999999999968" y="85.64" width="21.67600941638886" height="18.20784790976664" as="geometry"/></mxCell><mxCell id="QVCYTxlY-2K3jcF5bHon-176" value="&lt;div style=&quot;font-size: 15px&quot;&gt;Slots f-g&lt;br&gt;&lt;/div&gt;" style="text;html=1;strokeColor=none;fillColor=none;align=center;verticalAlign=middle;whiteSpace=wrap;rounded=0;shadow=0;sketch=0;" parent="QVCYTxlY-2K3jcF5bHon-169" vertex="1"><mxGeometry x="-2" y="26.15" width="70" height="33.85" as="geometry"/></mxCell><mxCell id="QVCYTxlY-2K3jcF5bHon-177" value="" style="group" parent="1" vertex="1" connectable="0"><mxGeometry x="30" y="675" width="70" height="150" as="geometry"/></mxCell><mxCell id="QVCYTxlY-2K3jcF5bHon-178" value="" style="shape=cylinder3;whiteSpace=wrap;html=1;boundedLbl=1;backgroundOutline=1;size=15;gradientColor=#FF3333;shadow=0;sketch=0;" parent="QVCYTxlY-2K3jcF5bHon-177" vertex="1"><mxGeometry y="15" width="65" height="150" as="geometry"/></mxCell><mxCell id="QVCYTxlY-2K3jcF5bHon-179" value="" style="sketch=0;aspect=fixed;html=1;points=[];align=center;image;fontSize=12;image=img/lib/mscae/Cache_Redis_Product.svg;" parent="QVCYTxlY-2K3jcF5bHon-177" vertex="1"><mxGeometry x="21.661428571428598" y="75.00384615384615" width="21.67600941638886" height="18.20784790976664" as="geometry"/></mxCell><mxCell id="QVCYTxlY-2K3jcF5bHon-180" value="" style="sketch=0;aspect=fixed;html=1;points=[];align=center;image;fontSize=12;image=img/lib/mscae/Cache_Redis_Product.svg;" parent="QVCYTxlY-2K3jcF5bHon-177" vertex="1"><mxGeometry x="21.661428571428598" y="118.84615384615384" width="21.67600941638886" height="18.20784790976664" as="geometry"/></mxCell><mxCell id="QVCYTxlY-2K3jcF5bHon-181" value="" style="sketch=0;aspect=fixed;html=1;points=[];align=center;image;fontSize=12;image=img/lib/mscae/Cache_Redis_Product.svg;" parent="QVCYTxlY-2K3jcF5bHon-177" vertex="1"><mxGeometry x="21.661428571428598" y="137.0538461538461" width="21.67600941638886" height="18.20784790976664" as="geometry"/></mxCell><mxCell id="QVCYTxlY-2K3jcF5bHon-182" value="" style="endArrow=none;dashed=1;html=1;strokeWidth=2;rounded=0;" parent="QVCYTxlY-2K3jcF5bHon-177" edge="1"><mxGeometry width="50" height="50" relative="1" as="geometry"><mxPoint y="95" as="sourcePoint"/><mxPoint x="67" y="95" as="targetPoint"/><Array as="points"><mxPoint x="33" y="95"/></Array></mxGeometry></mxCell><mxCell id="QVCYTxlY-2K3jcF5bHon-183" value="" style="sketch=0;aspect=fixed;html=1;points=[];align=center;image;fontSize=12;image=img/lib/mscae/Cache_Redis_Product.svg;" parent="QVCYTxlY-2K3jcF5bHon-177" vertex="1"><mxGeometry x="21.659999999999968" y="100.64" width="21.67600941638886" height="18.20784790976664" as="geometry"/></mxCell><mxCell id="QVCYTxlY-2K3jcF5bHon-184" value="&lt;div style=&quot;font-size: 15px&quot;&gt;Slots a-b&lt;br&gt;&lt;/div&gt;" style="text;html=1;strokeColor=none;fillColor=none;align=center;verticalAlign=middle;whiteSpace=wrap;rounded=0;shadow=0;sketch=0;" parent="QVCYTxlY-2K3jcF5bHon-177" vertex="1"><mxGeometry x="-2" y="41.15" width="70" height="33.85" as="geometry"/></mxCell><mxCell id="QVCYTxlY-2K3jcF5bHon-187" value="" style="group" parent="1" vertex="1" connectable="0"><mxGeometry x="210" y="690" width="70" height="150" as="geometry"/></mxCell><mxCell id="QVCYTxlY-2K3jcF5bHon-188" value="" style="shape=cylinder3;whiteSpace=wrap;html=1;boundedLbl=1;backgroundOutline=1;size=15;gradientColor=#FF3333;shadow=0;sketch=0;" parent="QVCYTxlY-2K3jcF5bHon-187" vertex="1"><mxGeometry width="65" height="150" as="geometry"/></mxCell><mxCell id="QVCYTxlY-2K3jcF5bHon-189" value="" style="sketch=0;aspect=fixed;html=1;points=[];align=center;image;fontSize=12;image=img/lib/mscae/Cache_Redis_Product.svg;" parent="QVCYTxlY-2K3jcF5bHon-187" vertex="1"><mxGeometry x="21.661428571428598" y="60.00384615384615" width="21.67600941638886" height="18.20784790976664" as="geometry"/></mxCell><mxCell id="QVCYTxlY-2K3jcF5bHon-190" value="" style="sketch=0;aspect=fixed;html=1;points=[];align=center;image;fontSize=12;image=img/lib/mscae/Cache_Redis_Product.svg;" parent="QVCYTxlY-2K3jcF5bHon-187" vertex="1"><mxGeometry x="21.661428571428598" y="103.84615384615384" width="21.67600941638886" height="18.20784790976664" as="geometry"/></mxCell><mxCell id="QVCYTxlY-2K3jcF5bHon-191" value="" style="sketch=0;aspect=fixed;html=1;points=[];align=center;image;fontSize=12;image=img/lib/mscae/Cache_Redis_Product.svg;" parent="QVCYTxlY-2K3jcF5bHon-187" vertex="1"><mxGeometry x="21.661428571428598" y="122.05384615384611" width="21.67600941638886" height="18.20784790976664" as="geometry"/></mxCell><mxCell id="QVCYTxlY-2K3jcF5bHon-192" value="" style="endArrow=none;dashed=1;html=1;strokeWidth=2;rounded=0;" parent="QVCYTxlY-2K3jcF5bHon-187" edge="1"><mxGeometry width="50" height="50" relative="1" as="geometry"><mxPoint y="80" as="sourcePoint"/><mxPoint x="67" y="80" as="targetPoint"/><Array as="points"><mxPoint x="33" y="80"/></Array></mxGeometry></mxCell><mxCell id="QVCYTxlY-2K3jcF5bHon-193" value="" style="sketch=0;aspect=fixed;html=1;points=[];align=center;image;fontSize=12;image=img/lib/mscae/Cache_Redis_Product.svg;" parent="QVCYTxlY-2K3jcF5bHon-187" vertex="1"><mxGeometry x="21.659999999999968" y="85.64" width="21.67600941638886" height="18.20784790976664" as="geometry"/></mxCell><mxCell id="QVCYTxlY-2K3jcF5bHon-194" value="&lt;div style=&quot;font-size: 15px&quot;&gt;Slots y-z&lt;br&gt;&lt;/div&gt;" style="text;html=1;strokeColor=none;fillColor=none;align=center;verticalAlign=middle;whiteSpace=wrap;rounded=0;shadow=0;sketch=0;" parent="QVCYTxlY-2K3jcF5bHon-187" vertex="1"><mxGeometry x="-2" y="26.15" width="70" height="33.85" as="geometry"/></mxCell><mxCell id="QVCYTxlY-2K3jcF5bHon-195" value="" style="group" parent="1" vertex="1" connectable="0"><mxGeometry x="582" y="690" width="70" height="150" as="geometry"/></mxCell><mxCell id="QVCYTxlY-2K3jcF5bHon-196" value="" style="shape=cylinder3;whiteSpace=wrap;html=1;boundedLbl=1;backgroundOutline=1;size=15;gradientColor=#FF3333;shadow=0;sketch=0;" parent="QVCYTxlY-2K3jcF5bHon-195" vertex="1"><mxGeometry width="65" height="150" as="geometry"/></mxCell><mxCell id="QVCYTxlY-2K3jcF5bHon-197" value="" style="sketch=0;aspect=fixed;html=1;points=[];align=center;image;fontSize=12;image=img/lib/mscae/Cache_Redis_Product.svg;" parent="QVCYTxlY-2K3jcF5bHon-195" vertex="1"><mxGeometry x="21.661428571428598" y="60.00384615384615" width="21.67600941638886" height="18.20784790976664" as="geometry"/></mxCell><mxCell id="QVCYTxlY-2K3jcF5bHon-198" value="" style="sketch=0;aspect=fixed;html=1;points=[];align=center;image;fontSize=12;image=img/lib/mscae/Cache_Redis_Product.svg;" parent="QVCYTxlY-2K3jcF5bHon-195" vertex="1"><mxGeometry x="21.661428571428598" y="103.84615384615384" width="21.67600941638886" height="18.20784790976664" as="geometry"/></mxCell><mxCell id="QVCYTxlY-2K3jcF5bHon-199" value="" style="sketch=0;aspect=fixed;html=1;points=[];align=center;image;fontSize=12;image=img/lib/mscae/Cache_Redis_Product.svg;" parent="QVCYTxlY-2K3jcF5bHon-195" vertex="1"><mxGeometry x="21.661428571428598" y="122.05384615384611" width="21.67600941638886" height="18.20784790976664" as="geometry"/></mxCell><mxCell id="QVCYTxlY-2K3jcF5bHon-200" value="" style="endArrow=none;dashed=1;html=1;strokeWidth=2;rounded=0;" parent="QVCYTxlY-2K3jcF5bHon-195" edge="1"><mxGeometry width="50" height="50" relative="1" as="geometry"><mxPoint y="80" as="sourcePoint"/><mxPoint x="67" y="80" as="targetPoint"/><Array as="points"><mxPoint x="33" y="80"/></Array></mxGeometry></mxCell><mxCell id="QVCYTxlY-2K3jcF5bHon-201" value="" style="sketch=0;aspect=fixed;html=1;points=[];align=center;image;fontSize=12;image=img/lib/mscae/Cache_Redis_Product.svg;" parent="QVCYTxlY-2K3jcF5bHon-195" vertex="1"><mxGeometry x="21.659999999999968" y="85.64" width="21.67600941638886" height="18.20784790976664" as="geometry"/></mxCell><mxCell id="QVCYTxlY-2K3jcF5bHon-202" value="&lt;div style=&quot;font-size: 15px&quot;&gt;Slots r-s&lt;br&gt;&lt;/div&gt;" style="text;html=1;strokeColor=none;fillColor=none;align=center;verticalAlign=middle;whiteSpace=wrap;rounded=0;shadow=0;sketch=0;" parent="QVCYTxlY-2K3jcF5bHon-195" vertex="1"><mxGeometry x="-2" y="26.15" width="70" height="33.85" as="geometry"/></mxCell><mxCell id="QVCYTxlY-2K3jcF5bHon-203" value="" style="endArrow=classic;html=1;strokeWidth=2;exitX=0.5;exitY=0;exitDx=0;exitDy=0;exitPerimeter=0;entryX=0.55;entryY=0.95;entryDx=0;entryDy=0;entryPerimeter=0;" parent="1" source="QVCYTxlY-2K3jcF5bHon-178" target="QVCYTxlY-2K3jcF5bHon-1" edge="1"><mxGeometry width="50" height="50" relative="1" as="geometry"><mxPoint x="380" y="580" as="sourcePoint"/><mxPoint x="430" y="530" as="targetPoint"/></mxGeometry></mxCell><mxCell id="QVCYTxlY-2K3jcF5bHon-204" value="&lt;font style=&quot;font-size: 16px&quot;&gt;Each node periodically pushes HB information and receives topo updates if relevant&lt;br&gt;&lt;/font&gt;" style="text;html=1;strokeColor=none;fillColor=none;align=center;verticalAlign=middle;whiteSpace=wrap;rounded=0;shadow=0;sketch=0;" parent="1" vertex="1"><mxGeometry y="510" width="130" height="110" as="geometry"/></mxCell><mxCell id="QVCYTxlY-2K3jcF5bHon-206" value="" style="curved=1;endArrow=classic;html=1;strokeWidth=2;entryX=0.607;entryY=0.942;entryDx=0;entryDy=0;entryPerimeter=0;startArrow=classic;startFill=1;" parent="1" target="QVCYTxlY-2K3jcF5bHon-1" edge="1"><mxGeometry width="50" height="50" relative="1" as="geometry"><mxPoint x="280" y="760" as="sourcePoint"/><mxPoint x="430" y="530" as="targetPoint"/><Array as="points"><mxPoint x="310" y="650"/><mxPoint x="270" y="580"/></Array></mxGeometry></mxCell><mxCell id="QVCYTxlY-2K3jcF5bHon-207" value="&lt;font style=&quot;font-size: 16px&quot;&gt;Replica which detects it's primary hasn't pushed HB can attempt to promote itself.&lt;br&gt;&lt;/font&gt;" style="text;html=1;strokeColor=none;fillColor=none;align=center;verticalAlign=middle;whiteSpace=wrap;rounded=0;shadow=0;sketch=0;" parent="1" vertex="1"><mxGeometry x="294.83" y="550" width="180" height="80" as="geometry"/></mxCell><mxCell id="QVCYTxlY-2K3jcF5bHon-208" value="" style="endArrow=classic;startArrow=classic;html=1;strokeWidth=2;entryX=0.8;entryY=0.8;entryDx=0;entryDy=0;entryPerimeter=0;exitX=0.323;exitY=0.108;exitDx=0;exitDy=0;exitPerimeter=0;" parent="1" source="QVCYTxlY-2K3jcF5bHon-138" target="En1ZoJ7ufk9oOZKxTBAK-1" edge="1"><mxGeometry width="50" height="50" relative="1" as="geometry"><mxPoint x="380" y="430" as="sourcePoint"/><mxPoint x="430" y="380" as="targetPoint"/></mxGeometry></mxCell><mxCell id="QVCYTxlY-2K3jcF5bHon-209" value="&lt;div style=&quot;font-size: 16px&quot;&gt;Slot range changes are orchestrated by the TD quorum, communicated down to the FCs&lt;/div&gt;" style="text;html=1;strokeColor=none;fillColor=none;align=center;verticalAlign=middle;whiteSpace=wrap;rounded=0;shadow=0;sketch=0;" parent="1" vertex="1"><mxGeometry x="570" y="170" width="190" height="70" as="geometry"/></mxCell><mxCell id="QVCYTxlY-2K3jcF5bHon-210" value="" style="endArrow=classic;html=1;strokeWidth=2;entryX=0.13;entryY=0.77;entryDx=0;entryDy=0;entryPerimeter=0;" parent="1" target="En1ZoJ7ufk9oOZKxTBAK-1" edge="1"><mxGeometry width="50" height="50" relative="1" as="geometry"><mxPoint x="180" y="410" as="sourcePoint"/><mxPoint x="430" y="330" as="targetPoint"/></mxGeometry></mxCell><mxCell id="QVCYTxlY-2K3jcF5bHon-211" value="&lt;div align=&quot;left&quot;&gt;&lt;p style=&quot;font-size: 16px&quot;&gt;&lt;font style=&quot;font-size: 16px&quot; face=&quot;Helvetica&quot;&gt;Note that:&lt;/font&gt;&lt;/p&gt;&lt;p style=&quot;font-size: 16px&quot;&gt;&lt;font style=&quot;font-size: 16px&quot; face=&quot;Helvetica&quot;&gt;- All nodes which own a specific slot are part of the same shard and are owned by the same Failover Coordinator.&lt;/font&gt;&lt;/p&gt;&lt;p style=&quot;font-size: 16px&quot;&gt;&lt;span&gt;- Status updates from a node which does not belong to a Failover Coordinator will get rejected by it.&lt;/span&gt;&lt;br&gt;&lt;/p&gt;&lt;/div&gt;" style="text;html=1;strokeColor=none;fillColor=none;align=left;verticalAlign=middle;whiteSpace=wrap;rounded=0;shadow=0;sketch=0;" parent="1" vertex="1"><mxGeometry x="20" y="830" width="820" height="170" as="geometry"/></mxCell><mxCell id="QVCYTxlY-2K3jcF5bHon-212" value="&lt;font style=&quot;font-size: 16px&quot;&gt;Each FC pushes topo updates and retrieves changes periodically&lt;/font&gt;" style="text;html=1;strokeColor=none;fillColor=none;align=center;verticalAlign=middle;whiteSpace=wrap;rounded=0;shadow=0;sketch=0;" parent="1" vertex="1"><mxGeometry x="20" y="170" width="220" height="130" as="geometry"/></mxCell><mxCell id="QVCYTxlY-2K3jcF5bHon-215" value="" style="curved=1;endArrow=classic;html=1;strokeWidth=2;exitX=0.5;exitY=0;exitDx=0;exitDy=0;exitPerimeter=0;entryX=0.55;entryY=0.95;entryDx=0;entryDy=0;entryPerimeter=0;" parent="1" source="QVCYTxlY-2K3jcF5bHon-162" target="En1ZoJ7ufk9oOZKxTBAK-1" edge="1"><mxGeometry width="50" height="50" relative="1" as="geometry"><mxPoint x="580" y="640" as="sourcePoint"/><mxPoint x="340" y="140" as="targetPoint"/><Array as="points"><mxPoint x="430" y="490"/><mxPoint x="420" y="370"/></Array></mxGeometry></mxCell><mxCell id="QVCYTxlY-2K3jcF5bHon-218" value="&lt;div style=&quot;font-size: 16px&quot;&gt;Nodes joining ask the TD to assign them to a FC, and can poll the TD for topology in cases where their FC is unreachable (when they are being migrated)&lt;/div&gt;" style="text;html=1;strokeColor=none;fillColor=none;align=center;verticalAlign=middle;whiteSpace=wrap;rounded=0;shadow=0;sketch=0;" parent="1" vertex="1"><mxGeometry x="652" y="570" width="180" height="70" as="geometry"/></mxCell></root></mxGraphModel></diagram></mxfile>